# xmcd
#
# Track frame offsets:
#	150
#	10872
#	21455
#	32259
#	40918
#	51259
#	60003
#	68782
#	84564
#	96008
#	109373
#	120168
#	131250
#	139513
#	147668
#	161331
#
# Disc length: 2189 seconds
# Revision: 0
# Processed by: cddbd v1.5.2PL0 Copyright (c) Steve Scherf et al.
# Submitted via: dBpowerAMP V12.0
#
DISCID=c8088b10
DTITLE=Frankie Miller - Live At The Louisiana Hayride
DYEAR=2008
DGENRE=Country
TTITLE0=Family Man
TTITLE1=Under Your Spell Again
TTITLE2=I'm Ragged But I'm Right
TTITLE3=Big Harlan Taylor
TTITLE4=Blackland Farmer
TTITLE5=The Honeymoon Is Over
TTITLE6=Mary, Don't You Weep
TTITLE7=The Money Side Of Life
TTITLE8=Oh, Lonesome Me
TTITLE9=She's Gone
TTITLE10=Why I'm Walkin'
TTITLE11=Baby Rocked Her Dolly
TTITLE12=Blue, Blue Day
TTITLE13=Family Reunion
TTITLE14=Rain, Rain
TTITLE15=June Carter Jokes About Frankie
EXTD=
EXTT0=
EXTT1=
EXTT2=
EXTT3=
EXTT4=
EXTT5=
EXTT6=
EXTT7=
EXTT8=
EXTT9=
EXTT10=
EXTT11=
EXTT12=
EXTT13=
EXTT14=
EXTT15=
PLAYORDER=
